<svg xmlns="http://www.w3.org/2000/svg" xmlns:xlink="http://www.w3.org/1999/xlink" width="2000" zoomAndPan="magnify" viewBox="0 0 1500 1499.999933" height="2000" preserveAspectRatio="xMidYMid meet" version="1.0"><defs><g/><clipPath id="df03087b97"><path d="M 361.300781 361.300781 L 1138.699219 361.300781 L 1138.699219 1138.699219 L 361.300781 1138.699219 Z M 361.300781 361.300781 " clip-rule="nonzero"/></clipPath><clipPath id="75a97401cb"><path d="M 750 361.300781 C 535.328125 361.300781 361.300781 535.328125 361.300781 750 C 361.300781 964.671875 535.328125 1138.699219 750 1138.699219 C 964.671875 1138.699219 1138.699219 964.671875 1138.699219 750 C 1138.699219 535.328125 964.671875 361.300781 750 361.300781 Z M 750 361.300781 " clip-rule="nonzero"/></clipPath><clipPath id="90ca3a27ab"><path d="M 0.300781 0.300781 L 777.699219 0.300781 L 777.699219 777.699219 L 0.300781 777.699219 Z M 0.300781 0.300781 " clip-rule="nonzero"/></clipPath><clipPath id="fc13578061"><path d="M 389 0.300781 C 174.328125 0.300781 0.300781 174.328125 0.300781 389 C 0.300781 603.671875 174.328125 777.699219 389 777.699219 C 603.671875 777.699219 777.699219 603.671875 777.699219 389 C 777.699219 174.328125 603.671875 0.300781 389 0.300781 Z M 389 0.300781 " clip-rule="nonzero"/></clipPath><clipPath id="db387b4531"><rect x="0" width="778" y="0" height="778"/></clipPath><clipPath id="2cc074a9a4"><path d="M 508.125 508.125 L 991.875 508.125 L 991.875 991.875 L 508.125 991.875 Z M 508.125 508.125 " clip-rule="nonzero"/></clipPath><clipPath id="8b71c471cd"><path d="M 750 508.125 C 616.417969 508.125 508.125 616.417969 508.125 750 C 508.125 883.582031 616.417969 991.875 750 991.875 C 883.582031 991.875 991.875 883.582031 991.875 750 C 991.875 616.417969 883.582031 508.125 750 508.125 Z M 750 508.125 " clip-rule="nonzero"/></clipPath><clipPath id="5a00691e8c"><path d="M 0.125 0.125 L 483.875 0.125 L 483.875 483.875 L 0.125 483.875 Z M 0.125 0.125 " clip-rule="nonzero"/></clipPath><clipPath id="1875b57539"><path d="M 242 0.125 C 108.417969 0.125 0.125 108.417969 0.125 242 C 0.125 375.582031 108.417969 483.875 242 483.875 C 375.582031 483.875 483.875 375.582031 483.875 242 C 483.875 108.417969 375.582031 0.125 242 0.125 Z M 242 0.125 " clip-rule="nonzero"/></clipPath><clipPath id="6acb5ef6e4"><rect x="0" width="484" y="0" height="484"/></clipPath><clipPath id="090f3d61ca"><rect x="0" width="614" y="0" height="216"/></clipPath><clipPath id="9713fb95d8"><rect x="0" width="747" y="0" height="393"/></clipPath><clipPath id="58986cba9e"><path d="M 555.628906 555.628906 L 875 555.628906 L 875 923 L 555.628906 923 Z M 555.628906 555.628906 " clip-rule="nonzero"/></clipPath><clipPath id="d75eaa7446"><path d="M 656 555.628906 L 944.128906 555.628906 L 944.128906 944.128906 L 656 944.128906 Z M 656 555.628906 " clip-rule="nonzero"/></clipPath></defs><rect x="-150" width="1800" fill="#ffffff" y="-149.999993" height="1799.99992" fill-opacity="1"/><rect x="-150" width="1800" fill="#ffffff" y="-149.999993" height="1799.99992" fill-opacity="1"/><g clip-path="url(#df03087b97)"><g clip-path="url(#75a97401cb)"><g transform="matrix(1, 0, 0, 1, 361, 361)"><g clip-path="url(#db387b4531)"><g clip-path="url(#90ca3a27ab)"><g clip-path="url(#fc13578061)"><path fill="#00609e" d="M 0.300781 0.300781 L 777.699219 0.300781 L 777.699219 777.699219 L 0.300781 777.699219 Z M 0.300781 0.300781 " fill-opacity="1" fill-rule="nonzero"/></g></g></g></g></g></g><g clip-path="url(#2cc074a9a4)"><g clip-path="url(#8b71c471cd)"><g transform="matrix(1, 0, 0, 1, 508, 508)"><g clip-path="url(#6acb5ef6e4)"><g clip-path="url(#5a00691e8c)"><g clip-path="url(#1875b57539)"><path fill="#ffffff" d="M 0.125 0.125 L 483.875 0.125 L 483.875 483.875 L 0.125 483.875 Z M 0.125 0.125 " fill-opacity="1" fill-rule="nonzero"/></g></g></g></g></g></g><g transform="matrix(1, 0, 0, 1, 444, 885)"><g clip-path="url(#090f3d61ca)"><g fill="#ffffff" fill-opacity="1"><g transform="translate(14.392938, 27.075449)"><g><path d="M 6.203125 10.234375 L 17.171875 3.59375 L 29.390625 -16.671875 L 31.765625 -12.75 L 21.53125 3.328125 L 40.515625 1.6875 L 42.859375 5.5625 L 19.265625 7.0625 L 8.296875 13.703125 Z M 6.203125 10.234375 "/></g></g></g><g fill="#ffffff" fill-opacity="1"><g transform="translate(29.537132, 52.415636)"><g><path d="M 10.9375 15.421875 C 8.9375 12.773438 7.769531 10.019531 7.4375 7.15625 C 7.113281 4.289062 7.578125 1.503906 8.828125 -1.203125 C 10.078125 -3.910156 12.078125 -6.300781 14.828125 -8.375 C 17.566406 -10.445312 20.40625 -11.71875 23.34375 -12.1875 C 26.289062 -12.65625 29.101562 -12.34375 31.78125 -11.25 C 34.46875 -10.164062 36.8125 -8.300781 38.8125 -5.65625 C 40.832031 -2.976562 42.003906 -0.203125 42.328125 2.671875 C 42.648438 5.554688 42.179688 8.34375 40.921875 11.03125 C 39.660156 13.71875 37.660156 16.097656 34.921875 18.171875 C 32.171875 20.242188 29.328125 21.523438 26.390625 22.015625 C 23.460938 22.503906 20.660156 22.195312 17.984375 21.09375 C 15.304688 19.988281 12.957031 18.097656 10.9375 15.421875 Z M 13.78125 13.28125 C 15.28125 15.257812 17.039062 16.660156 19.0625 17.484375 C 21.09375 18.316406 23.25 18.519531 25.53125 18.09375 C 27.8125 17.675781 30.109375 16.597656 32.421875 14.859375 C 34.734375 13.109375 36.394531 11.195312 37.40625 9.125 C 38.414062 7.050781 38.796875 4.925781 38.546875 2.75 C 38.296875 0.582031 37.421875 -1.488281 35.921875 -3.46875 C 34.429688 -5.4375 32.675781 -6.835938 30.65625 -7.671875 C 28.632812 -8.503906 26.488281 -8.710938 24.21875 -8.296875 C 21.945312 -7.890625 19.65625 -6.8125 17.34375 -5.0625 C 15.03125 -3.320312 13.363281 -1.410156 12.34375 0.671875 C 11.320312 2.753906 10.929688 4.882812 11.171875 7.0625 C 11.421875 9.238281 12.289062 11.3125 13.78125 13.28125 Z M 13.78125 13.28125 "/></g></g></g><g fill="#ffffff" fill-opacity="1"><g transform="translate(53.564318, 83.747785)"><g><path d="M 10.40625 11.859375 C 8.8125 10.171875 7.703125 8.332031 7.078125 6.34375 C 6.453125 4.351562 6.457031 2.285156 7.09375 0.140625 C 7.726562 -2.003906 9.128906 -4.101562 11.296875 -6.15625 L 26.8125 -20.796875 L 29.59375 -17.859375 L 14.046875 -3.1875 C 11.660156 -0.9375 10.472656 1.265625 10.484375 3.421875 C 10.492188 5.585938 11.375 7.597656 13.125 9.453125 C 14.863281 11.296875 16.796875 12.269531 18.921875 12.375 C 21.054688 12.476562 23.316406 11.40625 25.703125 9.15625 L 41.25 -5.515625 L 44.046875 -2.5625 L 28.53125 12.078125 C 26.363281 14.128906 24.191406 15.410156 22.015625 15.921875 C 19.835938 16.429688 17.757812 16.304688 15.78125 15.546875 C 13.8125 14.796875 12.019531 13.566406 10.40625 11.859375 Z M 10.40625 11.859375 "/></g></g></g><g fill="#ffffff" fill-opacity="1"><g transform="translate(76.37994, 107.703742)"><g><path d="M 2.6875 2.359375 L 24.9375 -23.046875 L 33.140625 -15.875 C 35.128906 -14.132812 36.460938 -12.382812 37.140625 -10.625 C 37.828125 -8.875 37.972656 -7.164062 37.578125 -5.5 C 37.191406 -3.84375 36.394531 -2.320312 35.1875 -0.9375 C 33.789062 0.65625 32.097656 1.71875 30.109375 2.25 C 28.128906 2.789062 26 2.53125 23.71875 1.46875 L 19.703125 17.265625 L 16.109375 14.109375 L 20.15625 -0.875 L 19.9375 -1.078125 L 14.921875 -5.453125 L 5.734375 5.03125 Z M 17.015625 -7.84375 L 21.953125 -3.53125 C 23.910156 -1.8125 25.75 -1.03125 27.46875 -1.1875 C 29.195312 -1.351562 30.707031 -2.171875 32 -3.640625 C 33.3125 -5.148438 33.910156 -6.734375 33.796875 -8.390625 C 33.691406 -10.046875 32.640625 -11.753906 30.640625 -13.515625 L 25.734375 -17.796875 Z M 17.015625 -7.84375 "/></g></g></g><g fill="#ffffff" fill-opacity="1"><g transform="translate(98.822368, 126.982794)"><g/></g></g><g fill="#ffffff" fill-opacity="1"><g transform="translate(109.639782, 135.686035)"><g><path d="M 2.984375 1.96875 L 21.578125 -26.234375 L 24.953125 -24 L 16.734375 -11.546875 L 31.359375 -1.90625 L 39.578125 -14.359375 L 42.96875 -12.140625 L 24.375 16.0625 L 20.984375 13.84375 L 29.53125 0.875 L 14.90625 -8.765625 L 6.359375 4.203125 Z M 2.984375 1.96875 "/></g></g></g><g fill="#ffffff" fill-opacity="1"><g transform="translate(138.28861, 154.330623)"><g><path d="M 3.15625 1.671875 L 19.015625 -28.15625 L 37.46875 -18.34375 L 35.90625 -15.40625 L 21.03125 -23.3125 L 15.5 -12.90625 L 29.09375 -5.6875 L 27.546875 -2.796875 L 13.953125 -10.015625 L 8.296875 0.640625 L 23.171875 8.546875 L 21.609375 11.484375 Z M 3.15625 1.671875 "/></g></g></g><g fill="#ffffff" fill-opacity="1"><g transform="translate(163.544731, 167.814211)"><g><path d="M 1.34375 0.5625 L 25.828125 -25.8125 L 29.796875 -24.15625 L 28.234375 11.78125 L 24.265625 10.140625 L 24.75 0.921875 L 11.484375 -4.609375 L 5.25 2.1875 Z M 13.859375 -7.1875 L 24.90625 -2.5625 L 25.828125 -20.265625 Z M 13.859375 -7.1875 "/></g></g></g><g fill="#ffffff" fill-opacity="1"><g transform="translate(194.443696, 180.488991)"><g><path d="M 3.40625 1.078125 L 13.5625 -31.140625 L 17.421875 -29.921875 L 8.234375 -0.78125 L 23.25 3.953125 L 22.28125 7.03125 Z M 3.40625 1.078125 "/></g></g></g><g fill="#ffffff" fill-opacity="1"><g transform="translate(219.793383, 188.465145)"><g><path d="M 11.203125 2.546875 L 17.953125 -27.15625 L 8.125 -29.390625 L 8.859375 -32.625 L 32.46875 -27.265625 L 31.734375 -24.03125 L 21.890625 -26.265625 L 15.140625 3.4375 Z M 11.203125 2.546875 "/></g></g></g><g fill="#ffffff" fill-opacity="1"><g transform="translate(247.522061, 194.831958)"><g><path d="M 3.546875 0.46875 L 7.90625 -33.03125 L 11.921875 -32.515625 L 10 -17.71875 L 27.375 -15.453125 L 29.296875 -30.25 L 33.296875 -29.734375 L 28.9375 3.765625 L 24.9375 3.25 L 26.9375 -12.15625 L 9.5625 -14.421875 L 7.5625 0.984375 Z M 3.546875 0.46875 "/></g></g></g><g fill="#ffffff" fill-opacity="1"><g transform="translate(281.020949, 198.762395)"><g><path d="M -0.28125 5.71875 L 3.203125 -4.71875 L 7.390625 -4.453125 L 2.515625 5.90625 Z M -0.28125 5.71875 "/></g></g></g><g fill="#ffffff" fill-opacity="1"><g transform="translate(290.092753, 199.375075)"><g/></g></g><g fill="#ffffff" fill-opacity="1"><g transform="translate(304.080406, 200.259223)"><g><path d="M 18.921875 -0.34375 C 15.609375 -0.175781 12.671875 -0.765625 10.109375 -2.109375 C 7.554688 -3.453125 5.515625 -5.40625 3.984375 -7.96875 C 2.460938 -10.53125 1.617188 -13.535156 1.453125 -16.984375 C 1.285156 -20.410156 1.835938 -23.46875 3.109375 -26.15625 C 4.378906 -28.851562 6.21875 -31 8.625 -32.59375 C 11.039062 -34.1875 13.90625 -35.066406 17.21875 -35.234375 C 20.5625 -35.390625 23.515625 -34.789062 26.078125 -33.4375 C 28.640625 -32.09375 30.675781 -30.140625 32.1875 -27.578125 C 33.695312 -25.015625 34.535156 -22.019531 34.703125 -18.59375 C 34.867188 -15.144531 34.320312 -12.070312 33.0625 -9.375 C 31.8125 -6.6875 29.976562 -4.546875 27.5625 -2.953125 C 25.144531 -1.367188 22.265625 -0.5 18.921875 -0.34375 Z M 18.75 -3.90625 C 21.21875 -4.019531 23.363281 -4.679688 25.1875 -5.890625 C 27.019531 -7.097656 28.40625 -8.757812 29.34375 -10.875 C 30.289062 -13 30.695312 -15.507812 30.5625 -18.40625 C 30.414062 -21.289062 29.769531 -23.734375 28.625 -25.734375 C 27.488281 -27.742188 25.953125 -29.253906 24.015625 -30.265625 C 22.078125 -31.285156 19.875 -31.738281 17.40625 -31.625 C 14.9375 -31.5 12.785156 -30.835938 10.953125 -29.640625 C 9.117188 -28.441406 7.734375 -26.785156 6.796875 -24.671875 C 5.859375 -22.566406 5.460938 -20.070312 5.609375 -17.1875 C 5.742188 -14.289062 6.378906 -11.832031 7.515625 -9.8125 C 8.648438 -7.800781 10.1875 -6.28125 12.125 -5.25 C 14.070312 -4.226562 16.28125 -3.78125 18.75 -3.90625 Z M 18.75 -3.90625 "/></g></g></g><g fill="#ffffff" fill-opacity="1"><g transform="translate(343.501182, 198.085159)"><g><path d="M 15.671875 -1.90625 C 13.378906 -1.539062 11.234375 -1.660156 9.234375 -2.265625 C 7.234375 -2.878906 5.523438 -4.050781 4.109375 -5.78125 C 2.691406 -7.519531 1.75 -9.863281 1.28125 -12.8125 L -2.0625 -33.875 L 1.9375 -34.515625 L 5.28125 -13.40625 C 5.800781 -10.164062 6.953125 -7.9375 8.734375 -6.71875 C 10.523438 -5.507812 12.675781 -5.109375 15.1875 -5.515625 C 17.695312 -5.910156 19.597656 -6.957031 20.890625 -8.65625 C 22.191406 -10.351562 22.582031 -12.820312 22.0625 -16.0625 L 18.71875 -37.171875 L 22.71875 -37.8125 L 26.0625 -16.75 C 26.53125 -13.800781 26.359375 -11.28125 25.546875 -9.1875 C 24.742188 -7.101562 23.476562 -5.457031 21.75 -4.25 C 20.019531 -3.050781 17.992188 -2.269531 15.671875 -1.90625 Z M 15.671875 -1.90625 "/></g></g></g><g fill="#ffffff" fill-opacity="1"><g transform="translate(376.15498, 192.753768)"><g><path d="M 3.46875 -0.890625 L -4.96875 -33.609375 L 5.578125 -36.328125 C 8.140625 -36.992188 10.335938 -37.113281 12.171875 -36.6875 C 14.003906 -36.257812 15.5 -35.410156 16.65625 -34.140625 C 17.8125 -32.878906 18.617188 -31.363281 19.078125 -29.59375 C 19.609375 -27.53125 19.535156 -25.523438 18.859375 -23.578125 C 18.179688 -21.640625 16.757812 -20.035156 14.59375 -18.765625 L 25.375 -6.546875 L 20.75 -5.34375 L 10.625 -17.140625 L 10.34375 -17.0625 L 3.90625 -15.40625 L 7.390625 -1.90625 Z M 3.109375 -18.484375 L 9.453125 -20.125 C 11.972656 -20.769531 13.65625 -21.847656 14.5 -23.359375 C 15.34375 -24.878906 15.519531 -26.585938 15.03125 -28.484375 C 14.53125 -30.421875 13.5625 -31.8125 12.125 -32.65625 C 10.695312 -33.5 8.691406 -33.585938 6.109375 -32.921875 L -0.1875 -31.296875 Z M 3.109375 -18.484375 "/></g></g></g><g fill="#ffffff" fill-opacity="1"><g transform="translate(404.727094, 185.089291)"><g/></g></g><g fill="#ffffff" fill-opacity="1"><g transform="translate(417.841197, 180.989471)"><g><path d="M 3.328125 -1.328125 L -9.203125 -32.703125 L 10.1875 -40.453125 L 11.421875 -37.359375 L -4.21875 -31.109375 L 0.15625 -20.171875 L 14.453125 -25.890625 L 15.671875 -22.84375 L 1.375 -17.125 L 5.84375 -5.921875 L 21.484375 -12.171875 L 22.71875 -9.078125 Z M 3.328125 -1.328125 "/></g></g></g><g fill="#ffffff" fill-opacity="1"><g transform="translate(444.349858, 170.37608)"><g><path d="M 1.625 -0.828125 L 3.15625 -20.6875 L -13.625 -30.96875 L -9.515625 -33.046875 L 3.984375 -24.71875 L 4.9375 -40.359375 L 9 -42.40625 L 7.421875 -22.640625 L 24.28125 -12.296875 L 20.1875 -10.21875 L 6.625 -18.546875 L 5.734375 -2.90625 Z M 1.625 -0.828125 "/></g></g></g><g fill="#ffffff" fill-opacity="1"><g transform="translate(471.436391, 156.578579)"><g><path d="M 3.03125 -1.890625 L -14.859375 -30.546875 L -5.4375 -36.421875 C -3.207031 -37.816406 -1.140625 -38.59375 0.765625 -38.75 C 2.679688 -38.914062 4.378906 -38.59375 5.859375 -37.78125 C 7.335938 -36.96875 8.570312 -35.769531 9.5625 -34.1875 C 10.53125 -32.625 11.0625 -31 11.15625 -29.3125 C 11.25 -27.632812 10.804688 -25.96875 9.828125 -24.3125 C 8.859375 -22.664062 7.242188 -21.132812 4.984375 -19.71875 L -1 -15.984375 L 6.46875 -4.03125 Z M -2.796875 -18.890625 L 3.109375 -22.578125 C 5.390625 -24.003906 6.710938 -25.503906 7.078125 -27.078125 C 7.441406 -28.648438 7.09375 -30.285156 6.03125 -31.984375 C 4.957031 -33.691406 3.632812 -34.726562 2.0625 -35.09375 C 0.488281 -35.457031 -1.4375 -34.925781 -3.71875 -33.5 L -9.625 -29.8125 Z M -2.796875 -18.890625 "/></g></g></g><g fill="#ffffff" fill-opacity="1"><g transform="translate(496.21109, 141.030621)"><g><path d="M 2.859375 -2.15625 L -17.4375 -29.15625 L -0.734375 -41.703125 L 1.265625 -39.046875 L -12.203125 -28.921875 L -5.125 -19.5 L 7.171875 -28.75 L 9.140625 -26.125 L -3.15625 -16.875 L 4.09375 -7.234375 L 17.5625 -17.359375 L 19.5625 -14.703125 Z M 2.859375 -2.15625 "/></g></g></g><g fill="#ffffff" fill-opacity="1"><g transform="translate(519.01315, 123.866116)"><g><path d="M 2.65625 -2.390625 L -19.921875 -27.515625 L -11.8125 -34.796875 C -9.84375 -36.566406 -7.945312 -37.6875 -6.125 -38.15625 C -4.3125 -38.625 -2.597656 -38.5625 -0.984375 -37.96875 C 0.617188 -37.382812 2.035156 -36.410156 3.265625 -35.046875 C 4.679688 -33.460938 5.535156 -31.65625 5.828125 -29.625 C 6.117188 -27.59375 5.601562 -25.507812 4.28125 -23.375 L 19.484375 -17.515625 L 15.9375 -14.328125 L 1.53125 -20.109375 L 1.3125 -19.90625 L -3.640625 -15.453125 L 5.671875 -5.09375 Z M -5.78125 -17.828125 L -0.90625 -22.21875 C 1.03125 -23.957031 2.019531 -25.691406 2.0625 -27.421875 C 2.113281 -29.148438 1.488281 -30.742188 0.1875 -32.203125 C -1.15625 -33.691406 -2.65625 -34.476562 -4.3125 -34.5625 C -5.96875 -34.644531 -7.785156 -33.796875 -9.765625 -32.015625 L -14.609375 -27.65625 Z M -5.78125 -17.828125 "/></g></g></g><g fill="#ffffff" fill-opacity="1"><g transform="translate(541.208271, 103.77917)"><g><path d="M 7.84375 -8.390625 L -14.40625 -29.171875 L -21.296875 -21.8125 L -23.734375 -24.09375 L -7.203125 -41.796875 L -4.765625 -39.515625 L -11.65625 -32.125 L 10.59375 -11.34375 Z M 7.84375 -8.390625 "/></g></g></g><g fill="#ffffff" fill-opacity="1"><g transform="translate(560.072205, 83.208615)"><g><path d="M 2.28125 -2.75 L -23.75 -24.28125 L -21.171875 -27.40625 L 4.859375 -5.875 Z M 2.28125 -2.75 "/></g></g></g><g fill="#ffffff" fill-opacity="1"><g transform="translate(567.978777, 74.008612)"><g><path d="M 8.90625 -11.234375 C 7.445312 -9.234375 5.8125 -7.753906 4 -6.796875 C 2.195312 -5.847656 0.351562 -5.445312 -1.53125 -5.59375 C -3.425781 -5.738281 -5.226562 -6.4375 -6.9375 -7.6875 L -4.4375 -11.125 C -3.375 -10.34375 -2.210938 -9.867188 -0.953125 -9.703125 C 0.296875 -9.546875 1.535156 -9.742188 2.765625 -10.296875 C 3.992188 -10.859375 5.117188 -11.84375 6.140625 -13.25 C 7.484375 -15.09375 8.082031 -16.84375 7.9375 -18.5 C 7.789062 -20.164062 7.054688 -21.484375 5.734375 -22.453125 C 4.640625 -23.242188 3.59375 -23.644531 2.59375 -23.65625 C 1.59375 -23.675781 0.597656 -23.441406 -0.390625 -22.953125 C -1.390625 -22.460938 -2.421875 -21.816406 -3.484375 -21.015625 C -4.546875 -20.222656 -5.675781 -19.40625 -6.875 -18.5625 C -9.144531 -16.988281 -11.1875 -16.085938 -13 -15.859375 C -14.820312 -15.640625 -16.601562 -16.164062 -18.34375 -17.4375 C -19.820312 -18.46875 -20.867188 -19.742188 -21.484375 -21.265625 C -22.097656 -22.796875 -22.253906 -24.4375 -21.953125 -26.1875 C -21.660156 -27.9375 -20.867188 -29.691406 -19.578125 -31.453125 C -18.304688 -33.203125 -16.875 -34.484375 -15.28125 -35.296875 C -13.695312 -36.109375 -12.070312 -36.453125 -10.40625 -36.328125 C -8.75 -36.210938 -7.179688 -35.640625 -5.703125 -34.609375 L -8.21875 -31.171875 C -8.96875 -31.722656 -9.851562 -32.070312 -10.875 -32.21875 C -11.894531 -32.375 -12.925781 -32.222656 -13.96875 -31.765625 C -15.019531 -31.316406 -15.984375 -30.492188 -16.859375 -29.296875 C -17.953125 -27.835938 -18.457031 -26.347656 -18.375 -24.828125 C -18.289062 -23.316406 -17.554688 -22.054688 -16.171875 -21.046875 C -15.015625 -20.203125 -13.878906 -19.878906 -12.765625 -20.078125 C -11.648438 -20.285156 -10.457031 -20.835938 -9.1875 -21.734375 C -7.925781 -22.640625 -6.460938 -23.691406 -4.796875 -24.890625 C -3.378906 -25.835938 -1.976562 -26.601562 -0.59375 -27.1875 C 0.78125 -27.769531 2.175781 -27.992188 3.59375 -27.859375 C 5.007812 -27.722656 6.484375 -27.097656 8.015625 -25.984375 C 9.316406 -25.035156 10.296875 -23.800781 10.953125 -22.28125 C 11.617188 -20.757812 11.816406 -19.050781 11.546875 -17.15625 C 11.285156 -15.257812 10.40625 -13.285156 8.90625 -11.234375 Z M 8.90625 -11.234375 "/></g></g></g><g fill="#ffffff" fill-opacity="1"><g transform="translate(585.11689, 50.368083)"><g><path d="M 1.84375 -3.0625 L -27.078125 -20.53125 L -16.265625 -38.40625 L -13.40625 -36.6875 L -22.125 -22.28125 L -12.046875 -16.1875 L -4.09375 -29.359375 L -1.28125 -27.65625 L -9.234375 -14.484375 L 1.09375 -8.25 L 9.8125 -22.65625 L 12.65625 -20.9375 Z M 1.84375 -3.0625 "/></g></g></g></g></g><g transform="matrix(1, 0, 0, 1, 375, 378)"><g clip-path="url(#9713fb95d8)"><g fill="#ffffff" fill-opacity="1"><g transform="translate(72.457025, 390.045511)"><g><path d="M 0.0625 -1.703125 L -51.125 -22.359375 L -50.765625 -33.03125 L 1.671875 -50.25 L 1.34375 -40.203125 L -10.796875 -36.453125 L -11.46875 -16.234375 L 0.390625 -11.625 Z M -18.78125 -19.0625 L -18.28125 -34.09375 L -40.078125 -27.265625 Z M -18.78125 -19.0625 "/></g></g></g><g fill="#ffffff" fill-opacity="1"><g transform="translate(74.196389, 340.566053)"><g><path d="M 0.9375 -4.9375 L -50.015625 -14.53125 L -46.46875 -33.390625 C -45.707031 -37.460938 -44.394531 -40.707031 -42.53125 -43.125 C -40.664062 -45.539062 -38.421875 -47.179688 -35.796875 -48.046875 C -33.171875 -48.910156 -30.378906 -49.0625 -27.421875 -48.5 C -24.609375 -47.976562 -22.140625 -46.859375 -20.015625 -45.140625 C -17.898438 -43.429688 -16.378906 -41.109375 -15.453125 -38.171875 C -14.535156 -35.242188 -14.46875 -31.691406 -15.25 -27.515625 L -17.046875 -17.984375 L 2.6875 -14.265625 Z M -24.609375 -19.40625 L -22.921875 -28.359375 C -22.304688 -31.609375 -22.578125 -34.082031 -23.734375 -35.78125 C -24.898438 -37.488281 -26.722656 -38.570312 -29.203125 -39.03125 C -31.722656 -39.507812 -33.832031 -39.164062 -35.53125 -38 C -37.226562 -36.84375 -38.382812 -34.640625 -39 -31.390625 L -40.6875 -22.4375 Z M -24.609375 -19.40625 "/></g></g></g><g fill="#ffffff" fill-opacity="1"><g transform="translate(82.052617, 298.438867)"><g><path d="M 1.609375 -4.765625 L -47.515625 -21.3125 L -36.71875 -53.40625 L -29.5 -50.96875 L -37.265625 -27.859375 L -23.796875 -23.328125 L -16.734375 -44.3125 L -9.703125 -41.953125 L -16.765625 -20.96875 L -2.578125 -16.1875 L 5.1875 -39.296875 L 12.40625 -36.859375 Z M 1.609375 -4.765625 "/></g></g></g><g fill="#ffffff" fill-opacity="1"><g transform="translate(94.652218, 259.833528)"><g><path d="M 1.140625 -2.25 L -14.90625 -28.5625 L -45.1875 -25.5 L -40.265625 -35.21875 L -18.890625 -37.40625 L -30.1875 -55.078125 L -25.359375 -64.59375 L -9.453125 -38.359375 L 21.046875 -41.484375 L 16.125 -31.765625 L -5.53125 -29.546875 L 5.96875 -11.765625 Z M 1.140625 -2.25 "/></g></g></g><g fill="#ffffff" fill-opacity="1"><g transform="translate(116.736432, 217.960612)"><g/></g></g><g fill="#ffffff" fill-opacity="1"><g transform="translate(124.633363, 203.840331)"><g><path d="M 3.1875 -3.890625 L -36.921875 -36.734375 L -30.90625 -44.078125 L -14.234375 -30.421875 L 0.484375 -48.40625 L -16.1875 -62.0625 L -10.171875 -69.40625 L 29.9375 -36.5625 L 23.921875 -29.21875 L 6.4375 -43.53125 L -8.28125 -25.546875 L 9.203125 -11.234375 Z M 3.1875 -3.890625 "/></g></g></g><g fill="#ffffff" fill-opacity="1"><g transform="translate(156.409903, 165.31956)"><g><path d="M 3.734375 -3.375 L -31.015625 -41.84375 L -5.890625 -64.53125 L -0.78125 -58.875 L -18.875 -42.546875 L -9.34375 -32 L 7.09375 -46.828125 L 12.0625 -41.328125 L -4.375 -26.5 L 5.65625 -15.390625 L 23.75 -31.71875 L 28.859375 -26.0625 Z M 3.734375 -3.375 "/></g></g></g><g fill="#ffffff" fill-opacity="1"><g transform="translate(186.137097, 137.771598)"><g><path d="M 1.421875 -0.9375 L -11.40625 -54.625 L -2.5 -60.515625 L 41.921875 -27.765625 L 33.53125 -22.203125 L 23.4375 -29.921875 L 6.578125 -18.75 L 9.6875 -6.421875 Z M 4.65625 -26.359375 L 17.1875 -34.65625 L -1 -48.453125 Z M 4.65625 -26.359375 "/></g></g></g><g fill="#ffffff" fill-opacity="1"><g transform="translate(227.650637, 110.560434)"><g><path d="M 4.5625 -2.140625 L -17.453125 -49.078125 L -8.875 -53.109375 L 10 -12.875 L 30.78125 -22.609375 L 33.921875 -15.90625 Z M 4.5625 -2.140625 "/></g></g></g><g fill="#ffffff" fill-opacity="1"><g transform="translate(262.691286, 93.863392)"><g><path d="M 16.3125 -5.140625 L 3.046875 -47.3125 L -11.359375 -42.765625 L -13.65625 -50.046875 L 24.28125 -61.984375 L 26.578125 -54.703125 L 12.09375 -50.15625 L 25.359375 -7.984375 Z M 16.3125 -5.140625 "/></g></g></g><g fill="#ffffff" fill-opacity="1"><g transform="translate(302.071496, 80.945775)"><g><path d="M 4.96875 -0.765625 L -2.953125 -52 L 6.421875 -53.453125 L 9.71875 -32.15625 L 32.703125 -35.703125 L 29.40625 -57 L 38.78125 -58.453125 L 46.703125 -7.21875 L 37.328125 -5.765625 L 33.875 -28.09375 L 10.890625 -24.546875 L 14.34375 -2.21875 Z M 4.96875 -0.765625 "/></g></g></g><g fill="#ffffff" fill-opacity="1"><g transform="translate(351.061647, 73.047053)"><g><path d="M 28.5 1.3125 C 23.257812 1.238281 18.78125 0.0507812 15.0625 -2.25 C 11.351562 -4.550781 8.515625 -7.726562 6.546875 -11.78125 C 4.578125 -15.84375 3.632812 -20.515625 3.71875 -25.796875 C 3.800781 -31.078125 4.882812 -35.726562 6.96875 -39.75 C 9.050781 -43.769531 11.984375 -46.882812 15.765625 -49.09375 C 19.554688 -51.3125 24.070312 -52.382812 29.3125 -52.3125 C 35.53125 -52.21875 40.601562 -50.59375 44.53125 -47.4375 C 48.457031 -44.289062 50.875 -39.925781 51.78125 -34.34375 L 41.34375 -34.5 C 40.738281 -37.320312 39.398438 -39.550781 37.328125 -41.1875 C 35.253906 -42.820312 32.488281 -43.664062 29.03125 -43.71875 C 24.25 -43.789062 20.472656 -42.210938 17.703125 -38.984375 C 14.929688 -35.765625 13.503906 -31.316406 13.421875 -25.640625 C 13.335938 -19.960938 14.628906 -15.488281 17.296875 -12.21875 C 19.960938 -8.945312 23.6875 -7.273438 28.46875 -7.203125 C 31.925781 -7.148438 34.71875 -7.859375 36.84375 -9.328125 C 38.96875 -10.804688 40.375 -12.875 41.0625 -15.53125 L 51.5 -15.375 C 50.425781 -10.050781 47.878906 -5.914062 43.859375 -2.96875 C 39.835938 -0.0195312 34.71875 1.40625 28.5 1.3125 Z M 28.5 1.3125 "/></g></g></g><g fill="#ffffff" fill-opacity="1"><g transform="translate(402.966639, 73.713615)"><g><path d="M 1.671875 0.3125 L 29.734375 -47.234375 L 40.234375 -45.28125 L 49.4375 9.140625 L 39.546875 7.3125 L 37.65625 -5.234375 L 17.765625 -8.921875 L 11.4375 2.109375 Z M 21.65625 -15.71875 L 36.4375 -13 L 32.9375 -35.546875 Z M 21.65625 -15.71875 "/></g></g></g><g fill="#ffffff" fill-opacity="1"><g transform="translate(451.622631, 82.743558)"><g><path d="M 4.75 1.671875 L 21.921875 -47.25 L 39.890625 -40.953125 C 43.804688 -39.578125 46.796875 -37.78125 48.859375 -35.5625 C 50.921875 -33.34375 52.1875 -30.878906 52.65625 -28.171875 C 53.125 -25.472656 52.875 -22.75 51.90625 -20 C 50.863281 -17.019531 49.128906 -14.566406 46.703125 -12.640625 C 44.285156 -10.722656 41.222656 -9.789062 37.515625 -9.84375 L 40.453125 14.203125 L 30.1875 10.59375 L 27.859375 -11.875 L 20.46875 -14.46875 L 13.703125 4.8125 Z M 22.78125 -21.046875 L 31.234375 -18.078125 C 34.210938 -17.035156 36.648438 -16.988281 38.546875 -17.9375 C 40.453125 -18.894531 41.820312 -20.5625 42.65625 -22.9375 C 43.46875 -25.257812 43.4375 -27.359375 42.5625 -29.234375 C 41.6875 -31.117188 39.707031 -32.601562 36.625 -33.6875 L 28.25 -36.625 Z M 22.78125 -21.046875 "/></g></g></g><g fill="#ffffff" fill-opacity="1"><g transform="translate(493.15093, 97.277995)"><g><path d="M 4.46875 2.3125 L 28.3125 -43.71875 L 58.375 -28.140625 L 54.875 -21.375 L 33.234375 -32.59375 L 26.6875 -19.96875 L 46.34375 -9.78125 L 42.9375 -3.203125 L 23.28125 -13.390625 L 16.40625 -0.09375 L 38.046875 11.125 L 34.53125 17.890625 Z M 4.46875 2.3125 "/></g></g></g><g fill="#ffffff" fill-opacity="1"><g transform="translate(529.786367, 116.87243)"><g/></g></g><g fill="#ffffff" fill-opacity="1"><g transform="translate(544.214977, 126.173164)"><g><path d="M 37.953125 -21.375 L 29.203125 -37.734375 L 33.765625 -43.9375 L 41.890625 -26.75 Z M 37.953125 -21.375 "/></g></g></g><g fill="#ffffff" fill-opacity="1"><g transform="translate(558.981153, 136.152162)"><g><path d="M 16.28125 15.890625 C 13.457031 13.347656 11.398438 10.613281 10.109375 7.6875 C 8.828125 4.769531 8.382812 1.84375 8.78125 -1.09375 C 9.175781 -4.039062 10.523438 -6.828125 12.828125 -9.453125 L 20.25 -2.75 C 18.707031 -0.894531 17.992188 1.195312 18.109375 3.53125 C 18.234375 5.875 19.375 8.019531 21.53125 9.96875 C 23.40625 11.65625 25.296875 12.546875 27.203125 12.640625 C 29.117188 12.734375 30.753906 12.03125 32.109375 10.53125 C 33.535156 8.957031 34.15625 7.289062 33.96875 5.53125 C 33.789062 3.769531 33.144531 1.890625 32.03125 -0.109375 C 30.914062 -2.109375 29.722656 -4.25 28.453125 -6.53125 C 26.410156 -10.238281 25.335938 -13.601562 25.234375 -16.625 C 25.140625 -19.644531 26.300781 -22.492188 28.71875 -25.171875 C 30.738281 -27.460938 33.039062 -28.921875 35.625 -29.546875 C 38.21875 -30.171875 40.890625 -30.050781 43.640625 -29.1875 C 46.390625 -28.332031 49.023438 -26.765625 51.546875 -24.484375 C 54.117188 -22.160156 55.972656 -19.65625 57.109375 -16.96875 C 58.242188 -14.289062 58.617188 -11.625 58.234375 -8.96875 C 57.859375 -6.3125 56.6875 -3.804688 54.71875 -1.453125 L 47.1875 -8.25 C 48.382812 -9.644531 48.945312 -11.316406 48.875 -13.265625 C 48.8125 -15.222656 47.882812 -17.015625 46.09375 -18.640625 C 44.59375 -20.066406 42.960938 -20.859375 41.203125 -21.015625 C 39.453125 -21.171875 37.898438 -20.5 36.546875 -19 C 35.378906 -17.71875 34.859375 -16.335938 34.984375 -14.859375 C 35.109375 -13.378906 35.632812 -11.753906 36.5625 -9.984375 C 37.488281 -8.222656 38.585938 -6.234375 39.859375 -4.015625 C 41.171875 -1.628906 42.210938 0.710938 42.984375 3.015625 C 43.765625 5.316406 43.976562 7.617188 43.625 9.921875 C 43.269531 12.234375 42.070312 14.519531 40.03125 16.78125 C 38.207031 18.800781 36.003906 20.207031 33.421875 21 C 30.835938 21.800781 28.066406 21.8125 25.109375 21.03125 C 22.148438 20.25 19.207031 18.535156 16.28125 15.890625 Z M 16.28125 15.890625 "/></g></g></g><g fill="#ffffff" fill-opacity="1"><g transform="translate(590.31356, 164.327476)"><g><path d="M 3.234375 3.859375 L 42.9375 -29.484375 L 64.71875 -3.5625 L 58.875 1.34375 L 43.1875 -17.328125 L 32.296875 -8.1875 L 46.546875 8.765625 L 40.875 13.53125 L 26.625 -3.421875 L 15.171875 6.203125 L 30.859375 24.875 L 25.015625 29.78125 Z M 3.234375 3.859375 "/></g></g></g><g fill="#ffffff" fill-opacity="1"><g transform="translate(616.680473, 195.306738)"><g><path d="M 2.65625 4.265625 L 46.640625 -23.1875 L 56.734375 -7.03125 C 58.929688 -3.507812 60.144531 -0.238281 60.375 2.78125 C 60.601562 5.8125 60.050781 8.523438 58.71875 10.921875 C 57.382812 13.328125 55.484375 15.300781 53.015625 16.84375 C 50.335938 18.507812 47.453125 19.332031 44.359375 19.3125 C 41.273438 19.300781 38.296875 18.125 35.421875 15.78125 L 22.703125 36.375 L 16.9375 27.140625 L 29.1875 8.140625 L 25.03125 1.484375 L 7.6875 12.3125 Z M 30.9375 -2.203125 L 35.6875 5.40625 C 37.351562 8.082031 39.226562 9.644531 41.3125 10.09375 C 43.394531 10.539062 45.503906 10.097656 47.640625 8.765625 C 49.734375 7.453125 51.023438 5.785156 51.515625 3.765625 C 52.003906 1.753906 51.382812 -0.628906 49.65625 -3.390625 L 44.953125 -10.9375 Z M 30.9375 -2.203125 "/></g></g></g><g fill="#ffffff" fill-opacity="1"><g transform="translate(640.189079, 232.208155)"><g><path d="M 7.890625 18.46875 L 48.109375 -19.34375 L 52.09375 -10.015625 L 19.09375 20.03125 L 63.640625 17.03125 L 67.5625 26.234375 L 12.453125 29.15625 Z M 7.890625 18.46875 "/></g></g></g><g fill="#ffffff" fill-opacity="1"><g transform="translate(659.129339, 278.628989)"><g><path d="M 1.4375 4.828125 L 51.109375 -10.015625 L 53.828125 -0.9375 L 4.15625 13.90625 Z M 1.4375 4.828125 "/></g></g></g><g fill="#ffffff" fill-opacity="1"><g transform="translate(665.339342, 295.501251)"><g><path d="M 4.03125 28.25 C 3.125 23.082031 3.453125 18.457031 5.015625 14.375 C 6.585938 10.300781 9.179688 6.921875 12.796875 4.234375 C 16.421875 1.546875 20.832031 -0.25 26.03125 -1.15625 C 31.238281 -2.070312 36.007812 -1.878906 40.34375 -0.578125 C 44.6875 0.722656 48.296875 3.023438 51.171875 6.328125 C 54.054688 9.628906 55.953125 13.863281 56.859375 19.03125 C 57.921875 25.15625 57.273438 30.441406 54.921875 34.890625 C 52.566406 39.335938 48.726562 42.523438 43.40625 44.453125 L 41.609375 34.171875 C 44.253906 33.046875 46.1875 31.3125 47.40625 28.96875 C 48.632812 26.625 48.953125 23.75 48.359375 20.34375 C 47.535156 15.632812 45.28125 12.222656 41.59375 10.109375 C 37.914062 7.992188 33.28125 7.425781 27.6875 8.40625 C 22.09375 9.375 17.9375 11.472656 15.21875 14.703125 C 12.507812 17.941406 11.566406 21.914062 12.390625 26.625 C 12.984375 30.03125 14.195312 32.632812 16.03125 34.4375 C 17.875 36.25 20.171875 37.242188 22.921875 37.421875 L 24.71875 47.703125 C 19.289062 47.648438 14.75 45.925781 11.09375 42.53125 C 7.445312 39.132812 5.09375 34.375 4.03125 28.25 Z M 4.03125 28.25 "/></g></g></g><g fill="#ffffff" fill-opacity="1"><g transform="translate(674.053239, 346.922478)"><g><path d="M 0.09375 5.03125 L 51.921875 4.03125 L 52.578125 37.890625 L 44.953125 38.046875 L 44.484375 13.671875 L 30.28125 13.9375 L 30.703125 36.078125 L 23.296875 36.21875 L 22.875 14.078125 L 7.90625 14.375 L 8.375 38.75 L 0.75 38.890625 Z M 0.09375 5.03125 "/></g></g></g></g></g><g clip-path="url(#58986cba9e)"><path fill="#006eac" d="M 874.484375 751.976562 C 873.574219 751.710938 758.453125 718.011719 684.761719 784.566406 C 637.253906 827.476562 640.925781 885.804688 649.628906 922.050781 C 591.003906 888.058594 551.578125 824.625 551.578125 751.980469 C 551.578125 645.5 636.292969 558.808594 742.003906 555.621094 C 681.070312 575.617188 600.003906 636.574219 651.617188 700.773438 C 662.488281 714.296875 695.46875 724.535156 729.175781 721.066406 C 802.757812 713.5 833.117188 720.132812 874.484375 751.976562 Z M 714.816406 619.058594 C 693.707031 619.058594 676.589844 636.175781 676.589844 657.289062 C 676.589844 678.398438 693.703125 695.515625 714.816406 695.515625 C 735.925781 695.515625 753.042969 678.402344 753.042969 657.289062 C 753.042969 636.175781 735.925781 619.058594 714.816406 619.058594 Z M 742.832031 782.84375 C 735.289062 782.84375 729.175781 788.957031 729.175781 796.496094 C 729.175781 804.039062 735.292969 810.152344 742.832031 810.152344 C 750.375 810.152344 756.488281 804.039062 756.488281 796.496094 C 756.488281 788.953125 750.371094 782.84375 742.832031 782.84375 Z M 712.070312 808.957031 C 706.015625 808.957031 701.109375 813.867188 701.109375 819.921875 C 701.109375 825.976562 706.015625 830.882812 712.070312 830.882812 C 718.125 830.882812 723.035156 825.976562 723.035156 819.921875 C 723.035156 813.867188 718.125 808.957031 712.070312 808.957031 Z M 688.636719 843.253906 C 684.460938 843.253906 681.070312 846.644531 681.070312 850.820312 C 681.070312 855 684.460938 858.386719 688.636719 858.386719 C 692.816406 858.386719 696.203125 855 696.203125 850.820312 C 696.203125 846.644531 692.816406 843.253906 688.636719 843.253906 Z M 780.242188 770.410156 C 772.699219 770.410156 766.589844 776.523438 766.589844 784.066406 C 766.589844 791.609375 772.703125 797.722656 780.242188 797.722656 C 787.785156 797.722656 793.898438 791.605469 793.898438 784.066406 C 793.902344 776.523438 787.785156 770.410156 780.242188 770.410156 Z M 817.640625 768.023438 C 811.171875 768.023438 805.925781 773.269531 805.925781 779.738281 C 805.925781 786.203125 811.171875 791.449219 817.640625 791.449219 C 824.109375 791.449219 829.351562 786.203125 829.351562 779.738281 C 829.351562 773.269531 824.109375 768.023438 817.640625 768.023438 Z M 857.128906 775.621094 C 853.140625 775.621094 849.910156 778.851562 849.910156 782.839844 C 849.910156 786.828125 853.140625 790.058594 857.128906 790.058594 C 861.117188 790.058594 864.347656 786.828125 864.347656 782.839844 C 864.347656 778.855469 861.117188 775.621094 857.128906 775.621094 Z M 857.128906 775.621094 " fill-opacity="1" fill-rule="nonzero"/></g><g clip-path="url(#d75eaa7446)"><path fill="#67bc45" d="M 944.488281 751.980469 C 944.488281 860.480469 856.53125 948.4375 748.03125 948.4375 C 721.191406 948.4375 695.601562 943.050781 672.296875 933.308594 C 660.976562 904.128906 656.917969 872.070312 656.917969 872.070312 C 718.964844 942.074219 897.953125 919.003906 914.65625 783.773438 C 931.359375 648.539062 843.0625 615.128906 843.0625 615.128906 C 895.167969 666.039062 902.722656 734.453125 902.722656 734.453125 C 902.722656 734.453125 841.074219 748.769531 820.390625 661.664062 C 806.449219 602.941406 776.234375 570.609375 758.027344 555.78125 C 861.882812 560.980469 944.488281 646.832031 944.488281 751.980469 Z M 944.488281 751.980469 " fill-opacity="1" fill-rule="nonzero"/></g></svg>